<?xml version="1.0" encoding="UTF-8" standalone="no"?><!-- Generator: Gravit.io --><svg xmlns="http://www.w3.org/2000/svg" xmlns:xlink="http://www.w3.org/1999/xlink" style="isolation:isolate" viewBox="0 0 300 150" width="300pt" height="150pt"><defs><clipPath id="_clipPath_gz2O1a1q9vdwpDdEt8OcPotqjCBGCMQf"><rect width="300" height="150"/></clipPath></defs><g clip-path="url(#_clipPath_gz2O1a1q9vdwpDdEt8OcPotqjCBGCMQf)"><path d=" M 250 100 L 250 140 C 250 145.519 245.519 150 240 150 L 210 150 C 204.481 150 200 145.519 200 140 L 200 10 C 200 4.481 204.481 0 210 0 L 250 0 L 250 0 L 290 0 C 295.519 0 300 4.481 300 10 L 300 40 C 300 45.519 295.519 50 290 50 C 295.519 50 300 54.481 300 60 L 300 90 C 300 95.519 295.519 100 290 100 L 250 100 Z " fill-rule="evenodd" fill="rgb(0,0,0)"/><path d=" M 110 0 L 190 0 C 195.519 0 200 4.481 200 10 L 200 140 C 200 145.519 195.519 150 190 150 L 110 150 C 104.481 150 100 145.519 100 140 L 100 10 C 100 4.481 104.481 0 110 0 Z " fill="rgb(0,0,0)"/><path d=" M 50 0 L 50 0 L 10 0 C 4.481 0 0 4.481 0 10 L 0 140 C 0 145.519 4.481 150 10 150 L 40 150 C 45.519 150 50 145.519 50 140 L 50 100 L 90 100 C 95.519 100 100 95.519 100 90 L 100 10 C 100 4.481 95.519 0 90 0 L 50 0 Z " fill-rule="evenodd" fill="rgb(0,0,0)"/></g></svg>